<mxfile host="app.diagrams.net" modified="2024-01-15T11:21:49.884Z" agent="Mozilla/5.0 (Macintosh; Intel Mac OS X 10_15_7) AppleWebKit/537.36 (KHTML, like Gecko) Chrome/120.0.0.0 Safari/537.36" version="22.1.17" etag="nYWe-2haZ1OnniIW9TZE" type="github">
  <diagram name="第 1 页" id="2LGb4GXJEnKHoQzeB1et">
    <mxGraphModel>
      <root>
        <mxCell id="0" />
        <mxCell id="1" parent="0" />
      </root>
    </mxGraphModel>
  </diagram>
</mxfile>
